<?xml version="1.0" standalone="no"?>
<!DOCTYPE svg PUBLIC "-//W3C//DTD SVG 20010904//EN"
 "http://www.w3.org/TR/2001/REC-SVG-20010904/DTD/svg10.dtd">
<svg version="1.0" xmlns="http://www.w3.org/2000/svg"
 width="1920.000000pt" height="1080.000000pt" viewBox="0 0 1920.000000 1080.000000"
 preserveAspectRatio="xMidYMid meet">
<metadata>
Created by potrace 1.13, written by Peter Selinger 2001-2015
</metadata>
<g transform="translate(0.000000,1080.000000) scale(0.100000,-0.100000)"
fill="#000000" stroke="none">
<path d="M0 5400 l0 -5400 9600 0 9600 0 0 4920 c0 3918 -3 4925 -13 4941 -9
17 -9 23 1 26 9 4 12 105 12 459 l0 454 -1693 0 -1694 0 1 -22 c1 -17 -5 -23
-19 -23 -15 0 -19 6 -18 23 l3 22 -161 0 c-134 0 -160 -2 -156 -14 3 -8 -1
-22 -9 -33 -14 -17 -14 -17 -29 2 -9 11 -13 25 -11 32 4 11 -167 13 -889 13
l-895 0 -1 -52 c-1 -29 -1 -92 0 -140 2 -76 0 -87 -16 -91 -16 -4 -16 -5 -1
-6 15 -1 17 -12 17 -67 -1 -62 -2 -65 -19 -49 -16 15 -17 14 -13 -9 3 -15 10
-23 18 -20 10 4 13 -7 13 -40 0 -55 -15 -61 -21 -8 -3 34 -4 33 -5 -10 -1 -34
2 -47 11 -45 9 1 12 -27 14 -110 1 -62 -2 -113 -7 -113 -4 0 -9 46 -9 102 -1
56 -4 104 -6 107 -3 2 -5 -260 -5 -582 0 -385 -3 -587 -10 -587 -5 0 -10 -5
-10 -11 0 -5 5 -7 10 -4 7 4 10 -197 8 -629 -1 -352 -6 -636 -10 -636 -5 0 -7
18 -5 40 2 22 2 42 0 44 -5 5 -4 365 1 409 2 15 0 30 -4 32 -4 3 -6 27 -4 55
2 40 -1 52 -16 60 -9 5 -20 6 -24 3 -3 -3 -6 -1 -6 5 0 5 6 13 13 15 9 4 9 6
0 6 -24 2 -13 21 11 21 22 0 24 4 19 31 -3 20 0 35 9 40 10 7 10 9 1 9 -12 0
-17 102 -14 275 2 86 -10 195 -21 195 -7 0 -9 -19 -6 -50 3 -27 1 -50 -3 -50
-5 0 -10 26 -11 58 -5 138 -13 -301 -13 -698 0 -365 2 -435 14 -435 25 0 36
-31 22 -59 -8 -14 -19 -24 -25 -23 -6 1 -14 -16 -17 -38 -3 -22 -7 96 -8 263
-1 201 -4 301 -11 297 -6 -3 -13 0 -16 8 -3 9 -13 13 -25 10 -28 -8 -23 10 10
40 20 17 31 22 35 14 2 -7 5 147 5 341 1 228 -3 352 -9 352 -5 0 -10 16 -10
35 0 19 5 35 10 35 7 0 9 116 8 333 l-2 332 -6 -225 c-4 -162 -6 -73 -8 316
-3 671 -10 904 -28 904 -11 0 -14 -93 -17 -507 l-2 -508 -3 508 c-2 443 -4
507 -17 507 -13 0 -15 -132 -17 -1117 l-3 -1118 -2 1044 c-3 821 -6 1047 -16
1053 -9 6 -9 8 1 8 8 0 12 20 12 65 0 63 -1 65 -25 65 l-25 0 -1 -107 c0 -60
-3 -286 -6 -503 -4 -217 -9 -903 -13 -1525 -3 -621 -7 -1015 -8 -875 -1 140
-4 462 -6 715 -3 253 -5 873 -5 1378 -1 910 -1 917 -21 917 -18 0 -20 -7 -20
-75 0 -42 4 -75 10 -75 6 0 6 -9 0 -26 -6 -16 -10 -377 -10 -961 0 -515 -2
-934 -5 -932 -2 3 -5 398 -6 879 -1 481 -5 898 -9 925 -4 28 -8 -78 -9 -244 0
-162 -3 -292 -6 -290 -2 3 -5 87 -6 187 -1 100 -5 182 -10 182 -5 0 -9 -94 -9
-209 0 -176 2 -210 15 -215 19 -7 19 -26 0 -26 -13 0 -15 -159 -15 -1372 0
-754 -2 -1369 -5 -1367 -2 3 -5 552 -5 1221 -1 669 -4 1218 -6 1221 -3 3 -8
72 -10 153 -3 82 -7 151 -10 153 -2 2 -5 -337 -5 -755 -1 -417 -3 -784 -5
-814 -2 -30 -7 -113 -10 -185 -2 -71 -7 -131 -9 -134 -3 -2 -5 299 -5 669 0
370 -2 671 -4 669 -2 -2 -7 -337 -11 -744 -4 -407 -9 -742 -11 -744 -2 -2 -4
398 -5 890 0 492 -2 905 -3 919 -1 14 -3 267 -4 563 -2 530 -2 537 -22 537
-19 0 -20 -7 -20 -177 0 -97 -2 -174 -4 -172 -3 2 -6 69 -7 149 -5 275 -17
204 -20 -120 -3 -275 -4 -300 -9 -165 -3 88 -8 -558 -10 -1435 -2 -877 -7
-1453 -10 -1280 -3 173 -7 693 -9 1155 -1 462 -5 863 -7 890 -1 28 -4 74 -5
103 -1 28 -6 52 -11 52 -4 0 -9 -316 -9 -702 -1 -387 -3 -695 -6 -685 -15 57
-20 -21 -21 -340 -2 -384 -12 -815 -18 -822 -2 -2 -4 706 -4 1574 0 868 -2
1576 -5 1574 -2 -3 -8 -126 -11 -275 -4 -148 -8 -271 -10 -273 -2 -2 -5 79 -6
180 -1 101 -2 193 -3 204 -1 11 -3 139 -5 285 -1 146 -5 252 -9 235 -4 -16 -6
-48 -4 -69 2 -27 -3 -46 -14 -58 -15 -17 -15 -20 -3 -28 13 -8 13 -12 -2 -27
-17 -16 -18 -15 -18 29 0 26 5 50 10 53 7 5 8 11 1 19 -5 6 -12 39 -14 71 -2
33 -4 -322 -5 -789 -1 -467 -5 -846 -9 -843 -3 4 -7 39 -8 79 0 39 -5 73 -11
75 -7 2 -11 -58 -13 -176 -1 -149 1 -179 13 -184 15 -6 11 -47 -5 -47 -5 0
-10 -141 -12 -312 -1 -172 -4 265 -7 972 -3 707 -6 1169 -7 1027 -2 -166 -7
-256 -13 -252 -6 3 -10 1 -10 -4 0 -6 5 -11 10 -11 6 0 10 -7 10 -16 0 -10 -6
-14 -15 -10 -8 3 -15 1 -15 -5 0 -5 7 -12 15 -15 8 -4 15 -13 15 -21 0 -12 -3
-13 -14 -4 -12 10 -14 -18 -15 -184 -2 -170 0 -195 14 -195 8 0 15 -4 15 -10
0 -5 -7 -10 -15 -10 -12 0 -15 -38 -18 -262 -1 -145 -3 79 -5 496 -1 418 -4
757 -7 755 -2 -3 -5 -312 -5 -686 -1 -564 -4 -682 -15 -687 -22 -8 -25 17 -25
204 0 162 -2 179 -17 183 -17 4 -17 5 0 6 16 1 17 20 17 266 -1 146 -5 263 -9
260 -11 -6 -21 46 -15 72 3 12 1 24 -5 27 -6 4 -11 14 -11 22 0 9 5 12 12 8 7
-5 8 -3 3 7 -5 7 -12 83 -15 169 -5 118 -8 53 -10 -275 -3 -284 -6 -386 -10
-300 -7 150 -9 -276 -10 -1675 0 -572 -4 -950 -9 -945 -12 13 -19 384 -23
1110 -2 373 -4 464 -5 256 -3 -245 -6 -327 -16 -333 -9 -6 -9 -8 1 -8 16 0 16
-57 0 -64 -10 -5 -10 -7 0 -12 6 -3 12 -18 11 -32 l-1 -27 -8 25 c-4 14 -9 23
-9 20 -1 -3 -4 -90 -7 -195 -4 -104 -8 -192 -10 -194 -2 -2 -5 196 -6 440 -1
244 -2 476 -3 514 -1 39 -3 333 -4 655 -2 327 -6 573 -11 558 -5 -15 -9 -423
-9 -905 -1 -822 -9 -1503 -17 -1512 -2 -2 -5 450 -6 1005 -1 555 -5 955 -8
889 l-6 -120 -4 140 -4 140 -6 -115 c-3 -71 -7 35 -10 280 l-5 395 -3 -502
c-1 -393 1 -502 10 -506 10 -4 10 -7 1 -14 -10 -7 -13 -151 -16 -639 -1 -362
-3 -145 -5 513 -1 639 -6 1144 -11 1147 -10 6 -18 -43 -21 -124 -1 -30 -2 -77
-3 -105 -1 -27 -6 -53 -12 -57 -6 -5 -6 -8 1 -8 13 0 13 -48 1 -67 -4 -6 -3
-15 3 -18 7 -4 7 -11 2 -18 -5 -7 -9 -38 -8 -70 1 -46 5 -61 20 -69 18 -10 18
-11 -3 -27 -22 -17 -23 -24 -28 -257 -3 -131 -7 -241 -9 -243 -2 -2 -5 88 -6
200 l-2 204 -6 -175 c-5 -163 -12 553 -10 1073 l1 197 -31 0 -30 0 -2 -292
c-2 -271 -3 -280 -8 -118 -4 109 -7 -23 -8 -352 -2 -417 1 -528 11 -528 8 0 7
-3 -3 -9 -8 -6 -18 -7 -22 -5 -4 3 -8 1 -8 -5 0 -5 6 -12 13 -14 9 -4 9 -6 0
-6 -10 -1 -13 -152 -15 -713 -3 -702 -3 -706 -8 -248 l-5 465 -3 -684 c-1
-376 -5 -681 -9 -677 -5 4 -8 22 -9 39 0 18 -4 174 -8 347 -5 226 -10 317 -19
322 -9 6 -8 8 2 8 12 0 12 3 3 12 -7 7 -9 32 -5 72 3 34 2 58 -2 54 -4 -4 -9
-27 -11 -50 -13 -170 -13 -167 4 -171 15 -4 15 -5 1 -6 -13 -1 -17 -14 -18
-68 -1 -37 -3 -69 -6 -71 -3 -3 -5 257 -5 578 0 321 -2 581 -5 579 -2 -3 -5
-308 -7 -679 -2 -371 -5 -751 -8 -845 -3 -93 -7 307 -10 890 -3 1072 -9 1110
-25 170 -4 -242 -9 -442 -11 -444 -2 -2 -5 216 -5 485 -1 269 -3 532 -4 584
-1 52 -3 308 -4 569 0 261 -4 471 -8 467 -8 -8 -13 -671 -13 -1670 0 -396 -2
-717 -5 -714 -3 2 -8 285 -11 629 -6 535 -9 626 -22 635 -13 9 -13 12 2 17 15
6 16 53 16 532 -1 323 -5 525 -11 525 -5 0 -10 -10 -10 -22 -1 -13 -3 -39 -5
-58 -2 -19 -6 -89 -9 -155 -3 -65 -8 -121 -10 -124 -3 -2 -5 63 -5 145 0 137
-2 150 -19 161 -20 12 -20 7 -21 -325 0 -185 -3 -380 -5 -432 -2 -52 -4 -227
-4 -389 -1 -162 -3 -292 -5 -290 -2 2 -7 189 -11 414 -8 452 -8 452 -18 461
-4 4 -7 -203 -7 -461 0 -258 -2 -466 -4 -464 -3 3 -6 91 -7 197 -2 152 -5 192
-16 192 -11 0 -13 -86 -15 -467 -2 -311 -4 -411 -8 -298 l-6 170 -4 -190 c-3
-127 -6 -20 -10 320 -4 420 -5 352 -6 -390 -1 -495 1 -888 3 -872 4 22 7 25
17 14 24 -23 28 -54 10 -72 -14 -13 -19 -14 -25 -3 -5 8 -9 -16 -9 -58 0 -55
-4 -73 -15 -78 -13 -5 -15 111 -15 1006 0 556 -2 1009 -4 1007 -2 -2 -7 -143
-10 -314 -4 -170 -9 -311 -11 -314 -3 -2 -5 243 -5 545 -1 548 -11 691 -25
334 -4 -102 -10 -450 -14 -775 l-7 -590 -2 550 c-2 393 -6 545 -13 532 -10
-18 -11 -18 -25 0 -11 15 -13 -97 -14 -766 0 -431 -2 -782 -4 -780 -2 2 -6
137 -10 299 -15 654 -18 725 -22 729 -2 2 -5 -355 -6 -795 -1 -439 -4 -736 -5
-659 -2 77 -8 144 -13 149 -7 7 -10 1 -11 -14 0 -14 -3 -81 -5 -149 -2 -69 -7
-127 -9 -130 -5 -4 -7 779 -5 1860 1 410 0 417 -20 422 -20 5 -20 3 -21 -706
-1 -392 -5 -701 -9 -687 -4 14 -9 340 -11 725 -3 518 -5 626 -9 415 -3 -157
-6 -270 -8 -252 -1 17 -6 32 -12 32 -14 0 -12 27 3 33 7 3 5 6 -5 6 -17 1 -18
-38 -18 -689 0 -535 3 -695 13 -710 9 -16 9 -22 0 -28 -9 -6 -13 -74 -16 -262
-1 -140 -3 236 -5 835 -2 936 -4 1086 -16 1063 -12 -22 -25 -91 -26 -135 0 -7
0 -19 -1 -25 -6 -89 -8 -194 -11 -538 l-3 -405 -2 318 c-2 174 -7 317 -12 317
-5 0 -9 -147 -10 -327 -1 -180 -4 -329 -7 -332 -2 -2 -4 374 -4 837 0 555 -3
842 -10 842 -5 0 -11 -8 -11 -17 -4 -59 -6 -214 -7 -872 -1 -404 -4 -732 -6
-730 -11 10 -15 204 -15 696 -1 469 -3 532 -16 527 -13 -5 -15 -107 -16 -828
-1 -451 -5 -805 -9 -786 -5 21 -8 -24 -9 -117 -1 -96 3 -153 9 -153 6 0 10 -9
10 -20 0 -11 -4 -20 -10 -20 -6 0 -10 -92 -10 -256 0 -140 -4 -253 -9 -250 -4
3 -8 34 -8 68 -1 112 -13 372 -18 402 -3 16 -12 41 -20 56 -13 24 -13 30 0 40
12 10 15 43 15 166 0 84 -4 155 -9 158 -4 3 -9 -24 -9 -61 -1 -36 -4 -68 -7
-71 -3 -3 -5 33 -5 79 0 51 -5 90 -12 97 -7 7 -11 49 -9 125 2 114 -4 167 -19
167 -11 0 -17 -144 -9 -201 3 -24 3 -46 -1 -49 -4 -3 -7 -23 -7 -45 0 -22 -3
-210 -8 -417 l-7 -378 21 0 c14 0 21 -6 21 -20 0 -18 -4 -21 -27 -19 -5 0 -11
-10 -15 -23 -3 -13 -6 254 -7 592 0 956 -10 1775 -21 1778 -13 5 -13 32 0 32
7 0 10 155 10 446 0 275 -4 443 -9 439 -6 -3 -14 3 -20 12 -7 13 -10 -412 -11
-1371 0 -764 -2 -1387 -4 -1385 -3 3 -5 43 -6 89 -3 188 -12 279 -29 283 -13
4 -12 5 3 6 16 1 18 6 12 43 -8 49 -35 86 -48 66 -4 -7 -8 -74 -7 -148 2 -303
-1 -893 -5 -889 -2 2 -7 537 -10 1189 -7 1349 -16 2283 -22 2289 -2 3 -4 -530
-4 -1184 0 -653 -2 -1190 -5 -1193 -3 -3 -5 26 -5 64 0 634 -4 1053 -10 1069
-5 11 -10 -91 -11 -235 -2 -233 -3 -244 -9 -125 -4 72 -10 251 -14 400 -4 148
-9 271 -11 274 -3 2 -5 -115 -5 -260 0 -145 -3 -566 -7 -935 -6 -655 -6 -672
13 -677 16 -4 17 -5 2 -6 -13 -1 -18 -10 -18 -31 0 -26 4 -30 26 -30 21 0 25
-4 22 -22 -2 -17 -9 -22 -26 -21 -21 3 -22 0 -24 -85 l-2 -87 -6 90 c-5 75 -7
60 -8 -87 -1 -113 2 -178 8 -178 6 0 10 -9 10 -20 0 -11 -4 -20 -10 -20 -7 0
-11 -186 -12 -532 -2 -293 -4 -445 -5 -338 -2 120 -7 203 -14 217 -9 16 -9 30
0 53 6 18 9 56 6 84 -3 28 -7 155 -10 281 -2 127 -4 243 -4 258 -1 16 -5 26
-11 22 -16 -10 -14 -2035 3 -2035 8 0 9 -2 1 -8 -8 -5 -14 -118 -19 -377 -3
-203 -8 -372 -11 -374 -2 -2 -4 470 -3 1050 0 580 -2 1338 -5 1684 -3 347 -6
800 -6 1007 0 376 0 377 -22 398 l-22 20 -15 -27 -16 -28 -3 25 c-2 14 -8 29
-13 35 -5 5 -9 -163 -9 -427 0 -294 3 -439 10 -443 8 -5 8 -11 0 -20 -7 -8
-10 -177 -10 -531 0 -475 -5 -692 -16 -703 -2 -2 -4 202 -4 455 -1 252 -2 605
-4 784 -2 179 -4 620 -6 980 -2 360 -5 642 -7 625 -6 -58 -14 -647 -18 -1435
-3 -437 -7 -799 -9 -805 -3 -5 -5 171 -5 393 l-1 402 -24 0 c-16 0 -27 7 -31
20 -8 26 13 53 37 47 17 -5 18 6 16 211 -1 120 -3 198 -5 175 -7 -71 -23 -48
-23 32 0 75 -15 104 -23 43 l-4 -33 -1 33 c-1 17 -6 32 -11 32 -5 0 -10 79
-11 182 0 100 -3 184 -5 187 -3 2 -5 -148 -5 -334 0 -186 -2 -336 -4 -334 -2
2 -7 51 -10 109 -10 166 -18 255 -22 259 -2 2 -4 -399 -4 -893 0 -529 -4 -895
-9 -892 -5 4 -10 222 -11 503 -1 274 -3 514 -4 533 -1 19 -4 424 -6 900 -4
717 -6 796 -10 460 -3 -223 -8 -391 -11 -375 -3 17 -7 -482 -8 -1107 0 -747
-4 -1139 -11 -1143 -6 -4 -8 7 -5 30 3 23 1 33 -6 29 -6 -3 -9 -15 -6 -25 3
-11 1 -19 -4 -19 -5 0 -10 371 -11 903 -1 496 -2 909 -4 917 -1 8 -3 42 -4 75
l-3 60 -7 -70 c-4 -38 -11 -169 -15 -290 -4 -121 -9 -222 -11 -224 -2 -2 -5
169 -6 380 -1 428 0 399 -12 418 -7 10 -5 12 3 6 10 -6 11 -3 1 15 -11 21 -34
276 -25 290 2 4 0 20 -5 36 -5 17 -9 -653 -9 -1590 l-1 -1620 22 -24 23 -24 0
-524 0 -524 -25 -25 c-40 -39 -890 -525 -920 -525 -29 0 -60 17 -549 300 -312
180 -373 219 -386 246 -12 26 -15 77 -15 263 0 199 -2 231 -15 231 -19 0 -19
24 0 40 13 11 15 85 13 574 -1 308 -5 521 -8 471 -5 -67 -7 -33 -9 135 -1 124
-4 250 -6 280 -1 30 -4 287 -6 570 -2 310 -5 457 -9 370 -3 -80 -7 116 -8 434
-1 319 -4 577 -6 575 -3 -2 -8 -171 -12 -374 -3 -204 -10 -514 -14 -690 l-7
-320 -2 290 c-1 160 -3 355 -5 435 -1 80 -3 379 -4 664 -1 286 -4 517 -6 515
-2 -2 -7 -152 -11 -334 -4 -181 -9 -332 -11 -334 -2 -2 -4 245 -4 550 0 608
-10 1612 -16 1618 -2 2 -5 -459 -6 -1025 -1 -999 -2 -1013 -9 -484 -5 300 -12
581 -17 625 -7 55 -10 -148 -11 -645 0 -399 -1 -738 -2 -755 -1 -29 -1 -30 -9
-5 -4 14 -9 -267 -11 -625 -1 -357 -5 -630 -9 -605 -4 25 -8 -159 -8 -408 -1
-299 -5 -451 -12 -447 -7 4 -10 287 -10 816 0 538 -3 808 -10 804 -6 -3 -10
-1 -10 4 0 6 5 11 10 11 6 0 10 62 10 168 0 111 -4 162 -10 152 -7 -10 -10 16
-10 83 0 75 -3 98 -13 94 -6 -2 -13 -19 -14 -38 -3 -90 -5 -96 -13 -49 -4 25
-8 212 -9 415 -2 390 -8 625 -20 790 -5 55 -10 -537 -12 -1315 -2 -778 -6
-1305 -9 -1170 l-5 245 -5 -325 -5 -325 -3 358 c-1 230 -6 357 -12 357 -5 0
-10 11 -10 25 0 14 5 25 10 25 16 0 13 387 -2 394 -10 5 -10 7 0 12 6 3 12 15
11 27 0 21 -1 21 -9 2 -7 -17 -9 -17 -9 -2 -1 9 -8 17 -16 17 -13 0 -15 -23
-16 -147 0 -170 -9 -396 -15 -402 -4 -4 -8 864 -4 978 1 43 -2 56 -19 68 -27
18 -27 53 -1 60 20 5 20 14 20 664 0 646 0 659 -19 659 -24 0 -36 17 -24 33 5
7 8 39 7 72 -5 138 -14 289 -19 293 -3 3 -5 -116 -5 -264 0 -148 -3 -481 -7
-741 l-6 -472 26 -10 c31 -12 38 -22 30 -49 -3 -15 -13 -22 -28 -22 -15 0 -25
-7 -28 -22 -3 -13 -6 -128 -7 -257 0 -212 1 -235 17 -247 17 -13 17 -15 1 -28
-17 -12 -18 -55 -20 -612 l-3 -599 -5 530 -5 530 -3 -599 c-1 -330 -4 -597 -7
-595 -2 3 -5 104 -6 224 -3 342 -15 421 -19 120 -2 -137 -3 -256 -3 -262 1 -7
-3 -13 -8 -13 -5 0 -9 414 -9 977 0 537 -2 974 -4 972 -2 -2 -7 -92 -10 -199
-18 -591 -18 -620 -6 -620 10 0 9 -4 0 -15 -9 -11 -15 -65 -18 -168 -2 -84 -6
-154 -8 -156 -2 -2 -4 69 -4 158 0 106 -3 160 -10 156 -5 -3 -10 1 -10 9 0 9
5 16 10 16 6 0 9 69 8 193 l-2 192 -6 -185 -6 -185 -2 259 c-1 143 -5 256 -9
252 -5 -4 -11 -85 -14 -179 l-5 -172 -2 173 c-2 145 -4 172 -17 172 -19 0 -19
29 0 36 13 5 15 38 15 213 0 136 -4 211 -11 218 -8 8 -8 13 0 17 8 5 11 139
11 438 0 358 -2 429 -13 419 -10 -8 -14 -47 -15 -148 -1 -76 -4 -171 -8 -211
-3 -51 -1 -78 7 -89 10 -12 10 -16 -1 -23 -7 -5 -11 -18 -8 -33 3 -14 1 -32
-3 -39 -4 -7 -5 -15 0 -18 4 -3 4 -39 1 -80 -12 -135 -12 -350 0 -350 7 0 8
-6 0 -19 -7 -13 -10 -383 -10 -1127 0 -609 -2 -1105 -5 -1103 -2 3 -6 792 -7
1755 -3 2252 -5 2484 -23 2484 -9 0 -11 -7 -7 -22 3 -14 2 -19 -6 -14 -9 5
-13 -159 -14 -666 -1 -385 -5 -592 -8 -483 -7 215 -9 -115 -10 -1164 0 -321
-2 -582 -4 -580 -6 6 -15 853 -18 1659 -1 399 -5 808 -8 910 -3 102 -7 -537
-8 -1419 -1 -882 -4 -1602 -7 -1600 -2 3 -5 82 -5 177 -1 95 -6 173 -11 173
-5 1 -14 2 -20 3 -32 3 -26 86 6 86 14 0 15 53 9 508 -3 279 -8 509 -10 511
-2 2 -4 -161 -4 -364 0 -203 -2 -366 -4 -364 -2 2 -6 172 -9 378 -4 205 -9
376 -12 379 -3 3 -7 3 -10 0 -3 -2 -4 -669 -3 -1480 l3 -1475 180 103 c99 57
188 104 197 104 9 0 24 -10 32 -22 14 -20 16 -102 16 -695 l0 -673 -27 -29
c-16 -17 -221 -141 -456 -276 -338 -194 -435 -245 -463 -245 -28 0 -127 52
-472 250 -241 138 -445 260 -454 271 -17 20 -18 68 -18 704 0 662 1 682 19
699 15 13 26 16 44 10 13 -5 137 -74 277 -154 185 -106 258 -153 272 -175 16
-28 18 -57 18 -361 0 -313 1 -333 19 -356 26 -32 243 -158 284 -164 26 -4 56
8 157 66 69 39 134 80 145 91 19 19 20 36 25 368 6 402 -4 364 117 433 68 39
73 44 73 75 0 18 -5 42 -12 53 -9 15 -9 24 1 43 10 19 12 165 8 708 -2 376 -7
702 -10 724 -3 22 -6 273 -6 557 -1 322 -5 519 -11 523 -6 4 -10 -199 -10
-562 0 -312 -5 -667 -11 -788 -6 -121 -14 -371 -18 -555 -7 -308 -8 -277 -11
390 -2 399 -4 730 -5 735 -2 6 -4 339 -6 740 -2 402 -6 681 -9 620 -3 -60 -7
283 -8 763 -1 573 -5 872 -12 872 -6 0 -10 -78 -11 -212 0 -117 -3 -341 -5
-498 -2 -157 -4 -358 -4 -447 0 -135 -2 -163 -14 -163 -8 0 -15 8 -16 18 -1 9
-4 276 -6 592 -2 316 -6 607 -7 645 -2 39 -4 -326 -5 -809 -1 -484 -4 -877 -6
-875 -7 7 -16 178 -22 449 -3 146 -6 272 -7 280 0 8 -5 18 -10 21 -6 4 -6 15
-2 25 5 11 7 30 6 44 -1 14 -4 225 -7 470 -3 245 -7 450 -9 455 -2 6 -4 -773
-5 -1730 -1 -957 -6 -1918 -11 -2135 -14 -574 -19 -733 -23 -750 -2 -8 -4
1028 -5 2303 l-1 2317 -25 0 -25 0 -1 -467 c0 -258 -3 -571 -6 -698 -5 -189
-6 -449 -5 -700 1 -22 -2 -335 -6 -695 -8 -691 -9 -685 -16 123 -2 280 -7 511
-10 515 -3 3 -6 -295 -6 -661 0 -602 4 -722 23 -649 3 9 5 -1 5 -23 0 -22 -2
-34 -5 -27 -19 48 -23 -43 -25 -575 -1 -433 -4 -555 -10 -463 -5 69 -12 411
-16 760 -4 349 -9 592 -11 540 -4 -125 -10 -238 -14 -275 -2 -16 -4 -81 -5
-144 -1 -63 -4 -112 -7 -109 -3 3 -5 193 -5 423 0 230 -2 416 -4 414 -3 -2 -8
-115 -11 -249 -4 -135 -8 -247 -11 -249 -2 -2 -4 140 -4 317 0 246 -3 322 -12
326 -10 5 -10 7 0 12 14 7 16 44 2 44 -5 0 -10 7 -10 15 0 8 5 15 10 15 7 0
10 225 10 654 0 572 -2 655 -15 660 -8 3 -15 12 -15 21 0 9 7 18 15 21 13 5
15 44 14 268 -1 143 -3 253 -6 244 -2 -10 -11 -18 -19 -18 -19 0 -21 -345 -1
-353 9 -4 9 -6 0 -6 -10 -1 -13 -254 -14 -1228 0 -777 -4 -1219 -10 -1205 -5
15 -9 440 -9 1068 0 682 -4 1044 -10 1044 -7 0 -11 -336 -12 -962 -3 -803 -4
-694 -8 657 l-5 1620 -3 -1804 c-1 -992 -5 -1802 -8 -1799 -3 4 -6 12 -8 20
-1 7 -5 19 -10 26 -4 7 -4 18 1 25 11 14 -8 143 -19 131 -7 -7 -11 180 -8 424
1 65 -3 102 -9 102 -7 0 -12 -37 -13 -97 0 -54 -2 -109 -3 -123 -2 -14 -3
-135 -4 -269 0 -134 -3 -242 -5 -240 -11 13 -16 541 -16 1922 0 1334 -2 1546
-14 1534 -12 -12 -15 -265 -18 -1711 -2 -1220 -6 -1699 -14 -1704 -6 -4 -14
-14 -17 -22 -3 -8 -6 794 -6 1783 -1 1590 -3 1797 -16 1797 -13 0 -15 -56 -17
-437 -1 -288 -4 -385 -8 -283 l-6 155 -2 -203 c-1 -133 1 -201 8 -197 6 4 10
-5 10 -20 0 -15 -4 -24 -10 -20 -7 4 -10 -368 -10 -1109 0 -737 3 -1116 10
-1116 6 0 10 -11 10 -25 0 -14 -4 -25 -10 -25 -6 0 -10 -67 -10 -182 0 -100
-2 -179 -4 -177 -2 2 -7 45 -10 94 -4 50 -8 96 -8 103 -3 29 -16 8 -25 -40 -8
-43 -11 -1 -14 212 -2 216 -4 243 -9 145 -3 -66 -6 269 -6 745 1 807 1 825 6
280 5 -573 5 -569 5 225 1 446 -2 709 -5 585 l-6 -225 -2 258 c-2 221 -4 258
-17 263 -14 6 -14 8 1 18 15 11 16 41 10 307 -3 162 -5 352 -6 422 0 83 -4
126 -10 122 -6 -3 -10 -1 -10 4 0 6 5 11 10 11 6 0 10 10 10 23 0 17 -2 19
-10 7 -6 -10 -10 0 -13 35 -2 28 -4 -269 -5 -659 -1 -390 -4 -707 -7 -705 -4
5 -13 189 -16 337 -1 39 -5 72 -10 72 -5 0 -9 7 -9 15 0 8 4 15 10 15 5 0 8
37 5 93 -2 50 -7 191 -10 312 -9 305 -14 407 -20 414 -3 3 -5 -164 -5 -369 0
-206 -1 -550 -2 -765 l-3 -390 -5 340 c-3 188 -6 -176 -8 -813 -1 -767 1
-1151 8 -1147 5 3 10 -3 10 -15 0 -12 -4 -18 -10 -15 -7 4 -10 -56 -11 -172
-1 -98 -2 -194 -4 -213 -2 -19 -4 -233 -5 -475 -2 -294 -5 -405 -10 -335 -14
197 -20 939 -20 2232 0 710 -3 1288 -7 1284 -5 -4 -8 -501 -9 -1104 -1 -956
-7 -1346 -20 -1361 -2 -2 -5 97 -6 220 -3 347 -6 440 -15 406 -4 -16 -7 -15
-19 8 -16 31 -19 89 -4 80 6 -4 11 11 11 37 l2 43 6 -40 c4 -28 8 -35 13 -23
12 28 10 1448 -2 1448 -5 0 -10 -7 -10 -16 0 -15 -18 -38 -33 -43 -12 -3 -36
30 -37 50 0 8 11 25 25 37 22 19 25 20 26 4 0 -14 2 -14 9 3 8 18 9 18 9 2 1
-10 5 -16 9 -13 7 4 7 125 1 241 -2 30 -2 30 -9 -5 l-7 -35 -2 35 c-2 29 -4
32 -11 15 -5 -12 -9 53 -9 168 -1 120 -5 187 -11 187 -6 0 -10 22 -9 50 1 28
6 50 11 50 4 0 8 73 8 163 0 108 -4 157 -10 147 -7 -10 -10 10 -10 66 0 65 -3
83 -16 88 -14 5 -15 -23 -14 -286 5 -821 -4 -2972 -12 -2833 -9 165 -13 188
-28 165 -6 -10 -9 95 -8 280 l3 295 2 -267 c2 -166 7 -268 13 -268 12 0 12
1949 0 1989 -7 23 -15 -346 -10 -469 1 -25 -1 -42 -5 -38 -3 3 -7 115 -7 247
-1 133 -5 244 -9 247 -5 2 -6 11 -2 19 3 8 0 15 -6 15 -8 0 -11 -217 -11 -782
0 -894 -11 -2701 -16 -2707 -2 -2 -4 799 -4 1782 0 1418 -3 1787 -12 1791 -10
5 -10 7 0 12 9 4 12 78 12 316 0 171 -2 309 -5 307 -2 -3 -5 -77 -6 -165 -1
-87 -5 -167 -10 -176 -7 -12 -6 -18 2 -18 7 0 9 -8 5 -22 -13 -42 -16 -262 -4
-297 9 -28 8 -35 -5 -43 -13 -7 -16 -39 -16 -214 0 -114 -3 -209 -6 -212 -3
-3 -5 93 -5 214 1 326 -11 1208 -15 1212 -2 3 -11 2 -20 -1 -20 -8 -21 -67 0
-67 8 0 15 -6 15 -14 0 -20 -17 -29 -23 -14 -3 7 -6 -783 -6 -1756 -1 -973 -3
-1767 -5 -1765 -2 2 -6 40 -9 83 -3 58 -9 83 -21 92 -15 10 -16 147 -16 1650
0 1448 -2 1636 -15 1617 -12 -18 -15 -121 -15 -727 -1 -435 -5 -706 -11 -706
-5 0 -9 307 -9 805 0 530 -3 805 -10 805 -7 0 -10 -438 -10 -1294 0 -853 3
-1297 10 -1301 6 -3 10 1 10 10 0 9 5 13 10 10 6 -3 10 -20 10 -36 0 -26 -3
-29 -20 -24 -20 6 -20 2 -20 -579 0 -562 -3 -618 -28 -591 -4 4 -1 10 6 12 9
4 12 293 12 1403 l0 1399 -22 4 -23 4 23 2 23 1 -2 380 c0 220 -5 380 -10 380
-5 0 -9 -12 -9 -27 0 -14 -2 -24 -5 -21 -8 7 -12 65 -14 176 -1 74 -4 92 -16
92 -13 0 -15 -98 -15 -826 0 -766 1 -824 16 -809 20 19 34 6 34 -32 0 -25 -34
-33 -43 -10 -3 6 -7 -226 -8 -518 -1 -291 -5 -505 -9 -475 -4 30 -8 -276 -10
-680 -2 -404 -6 -696 -7 -647 -2 48 -8 87 -13 87 -6 0 -6 9 0 24 8 22 6 121
-4 186 -3 14 -5 158 -5 320 -1 194 -5 290 -11 280 -8 -12 -10 -10 -10 8 0 13
4 20 10 17 7 -4 9 45 8 142 l-2 148 -6 -120 c-3 -66 -7 492 -8 1239 -1 748 -4
1357 -6 1355 -4 -4 -9 -348 -18 -1189 -2 -146 -5 88 -8 520 -4 616 -8 780 -17
760 -10 -22 -12 -18 -12 38 -1 34 -5 62 -11 62 -5 0 -11 28 -12 63 -1 61 -1
62 -8 17 l-7 -45 -2 45 c-3 38 -4 41 -11 20 -8 -24 -8 -24 -9 -3 l-1 22 -1108
1 -1108 0 4 -34 c2 -19 -1 -37 -8 -41 -17 -10 -62 15 -51 29 4 6 11 19 14 29
6 16 -78 17 -1673 17 l-1680 0 0 -5400z m5637 3512 c-1 -328 -2 -57 -2 603 0
660 1 929 2 597 2 -332 2 -872 0 -1200z m11103 398 c0 -10 -5 -20 -10 -22 -7
-2 -11 -192 -11 -573 0 -314 -4 -604 -8 -645 -5 -47 -9 96 -10 377 -1 350 -4
453 -13 457 -10 5 -10 7 0 12 9 4 12 57 12 214 0 203 0 208 20 203 11 -3 20
-13 20 -23z m-90 -805 c-4 -390 -6 -426 -15 -320 -12 140 -13 508 -3 814 7
182 6 211 -6 202 -11 -10 -15 -8 -19 6 -3 10 -6 -261 -8 -602 -2 -380 -5 -548
-9 -435 -5 162 -5 434 1 965 1 92 4 138 9 120 4 -16 8 -24 9 -17 0 6 8 12 16
12 9 0 16 11 17 28 7 94 12 -404 8 -773z m272 744 c0 -13 0 -383 -1 -821 0
-538 -4 -798 -11 -798 -7 0 -10 238 -10 730 0 642 -2 730 -15 730 -20 0 -19
17 1 28 12 7 15 27 15 92 0 58 3 80 10 73 6 -6 11 -22 11 -34z m77 -790 c1
-511 -3 -818 -9 -814 -5 3 -9 47 -9 98 1 51 -4 171 -10 267 -14 208 -14 1243
0 1234 8 -5 14 17 10 39 -1 5 3 6 8 2 7 -4 10 -296 10 -826z m-489 807 c0 -8
9 -18 20 -21 19 -6 29 -45 11 -45 -21 0 -36 -118 -16 -132 6 -5 4 -12 -5 -18
-10 -6 -11 -10 -2 -10 9 0 12 -93 12 -429 0 -334 -3 -430 -12 -434 -10 -4 -9
-8 2 -16 10 -7 11 -11 3 -11 -7 0 -13 -9 -13 -20 0 -11 -5 -20 -10 -20 -7 0
-10 190 -10 585 1 357 5 585 11 585 5 0 9 -6 9 -14z m-190 -996 c-6 -246 -13
-266 -18 -52 -2 81 -17 112 -25 50 -2 -18 -5 61 -5 176 -2 203 -2 208 -22 203
-31 -8 -45 26 -26 60 9 16 15 21 16 13 0 -13 1 -13 10 0 8 12 10 10 12 -10 1
-14 5 56 8 155 5 148 6 117 8 -177 1 -231 6 -358 12 -358 6 0 10 140 11 398 1
218 1 401 -1 407 -1 5 2 25 7 45 11 46 20 -611 13 -910z m527 371 c-1 -207 -4
-412 -7 -456 -4 -44 -7 154 -7 440 0 286 3 491 7 456 4 -35 7 -233 7 -440z
m-11407 -148 c0 -322 -2 -584 -5 -582 -2 3 -5 108 -6 234 0 128 -5 238 -11
248 -5 10 -6 26 -2 35 4 9 7 143 6 297 0 256 4 355 14 355 2 0 4 -264 4 -587z
m11920 490 c0 -20 -28 -46 -41 -37 -6 3 -3 -6 7 -21 15 -23 15 -28 3 -36 -10
-6 -10 -9 -1 -9 9 0 12 -37 12 -153 0 -160 10 -212 40 -202 9 3 7 -1 -4 -10
-11 -8 -23 -15 -28 -15 -4 0 -8 -104 -8 -232 0 -127 -3 -228 -7 -224 -5 4 -9
16 -9 27 -5 70 -7 75 -14 34 -4 -22 -8 166 -8 417 -1 300 3 460 9 464 6 3 8
12 5 20 -4 11 0 11 19 2 14 -6 25 -18 25 -25z m-1382 -515 c-3 -455 -3 -463
-23 -463 -13 0 -21 8 -23 24 -3 18 0 22 12 18 14 -6 16 23 16 288 0 245 -2
293 -14 289 -16 -6 -30 22 -16 31 6 4 10 22 10 41 0 21 4 33 10 29 6 -4 10 11
11 37 2 60 -1 82 -12 86 -5 2 -9 19 -9 38 0 20 4 33 9 29 5 -3 12 -1 16 5 3 5
8 10 11 10 2 0 3 -208 2 -462z m-9518 -465 c-1 -213 -4 -382 -9 -375 -4 7 -6
32 -5 57 1 25 -1 45 -5 45 -4 0 -6 100 -4 223 3 195 5 263 11 405 1 17 4 32 7
32 3 0 5 -174 5 -387z m8764 -445 c83 -45 220 -121 304 -168 83 -47 209 -116
279 -155 191 -106 173 -79 173 -264 0 -151 -1 -158 -22 -178 -37 -32 -532
-303 -555 -303 -46 0 -53 22 -53 166 l0 134 -38 24 c-22 13 -92 52 -157 87
l-118 62 -56 -29 c-139 -72 -237 -128 -248 -142 -9 -11 -13 -63 -13 -177 0
-142 2 -164 18 -177 19 -17 250 -144 357 -196 39 -19 151 -78 250 -132 99 -54
272 -148 385 -209 113 -62 215 -123 228 -137 l22 -25 0 -498 c0 -578 16 -509
-137 -594 -702 -388 -776 -427 -808 -427 -27 0 -147 62 -510 265 -71 40 -192
107 -267 149 -76 42 -142 85 -148 96 -5 10 -10 83 -10 162 0 157 5 175 61 203
l29 16 2 237 3 237 2 -233 3 -234 93 50 c50 27 107 58 124 68 l33 19 2 220 c1
156 3 192 7 125 3 -52 6 -148 6 -213 0 -87 3 -117 13 -117 6 0 12 4 12 8 0 4
15 14 34 20 l34 13 1 206 c0 113 3 208 6 211 3 3 5 -85 5 -196 0 -111 2 -202
5 -202 3 0 23 9 45 20 47 24 73 25 94 4 13 -12 16 -41 16 -150 l0 -134 38 -23
c20 -13 67 -40 105 -61 l67 -37 0 73 0 73 -40 23 -40 23 0 97 0 98 39 22 39
22 1 133 2 133 -78 39 c-43 22 -123 65 -178 95 -55 31 -138 76 -185 100 -200
103 -357 192 -377 216 l-23 25 0 497 c0 456 2 499 18 518 9 12 87 60 172 107
85 46 216 118 290 159 75 41 171 94 215 118 44 23 94 50 110 60 73 43 112 60
139 60 17 0 89 -33 180 -82z m-2826 -16 c41 -26 85 -54 98 -62 21 -13 100 -65
387 -252 40 -26 79 -51 87 -55 8 -5 67 -42 130 -83 63 -42 157 -103 208 -135
162 -104 207 -140 238 -191 l29 -49 0 -800 0 -800 -22 -40 c-27 -51 -58 -79
-163 -147 -132 -85 -273 -177 -413 -268 -158 -103 -242 -156 -330 -211 -37
-23 -81 -54 -97 -69 -16 -15 -31 -26 -33 -24 -1 2 -27 -12 -57 -31 -30 -19
-74 -46 -98 -61 -47 -29 -110 -40 -165 -30 -19 4 -122 65 -238 141 -112 74
-207 135 -210 135 -4 0 -9 6 -12 14 -4 10 25 29 96 65 l101 51 144 -96 c80
-53 152 -98 161 -101 9 -2 57 23 106 55 50 33 155 101 235 152 133 85 189 122
425 275 245 159 313 203 343 221 18 10 35 28 38 39 2 11 3 346 2 745 l-3 725
-95 63 c-52 35 -131 86 -175 114 -44 29 -106 69 -137 90 -32 21 -60 38 -63 38
-3 0 -11 5 -18 11 -7 5 -50 35 -97 65 -47 30 -119 76 -160 103 -41 27 -122 79
-180 116 -58 37 -125 81 -150 98 -25 16 -54 29 -65 29 -11 0 -64 -29 -117 -64
-54 -34 -146 -94 -205 -132 -106 -68 -198 -128 -418 -271 -60 -39 -141 -91
-179 -116 -39 -24 -104 -67 -145 -94 l-76 -51 -3 -735 c-2 -719 -2 -736 17
-753 20 -18 78 -56 256 -167 92 -58 103 -63 160 -63 67 -1 101 18 139 77 21
31 21 44 24 774 3 728 3 742 22 748 19 6 20 16 20 266 0 185 3 258 11 253 8
-4 9 -81 4 -260 l-7 -254 55 0 c31 0 62 -3 71 -6 14 -6 16 -82 16 -759 0 -658
-2 -761 -16 -817 -24 -95 -76 -173 -138 -205 -41 -22 -131 -43 -179 -43 -74 0
-204 49 -292 110 -22 15 -87 58 -145 95 -124 80 -152 105 -182 159 l-23 41 -3
755 c-2 415 0 779 3 807 13 109 41 134 437 387 51 33 158 103 238 154 80 52
174 114 210 137 36 23 110 71 165 107 216 140 216 140 305 132 43 -4 70 -15
128 -52z m2790 -804 l32 -20 0 -97 0 -97 -86 -48 c-48 -26 -92 -46 -98 -44 -6
2 -48 23 -93 48 l-83 45 0 97 0 96 68 38 c124 70 109 67 171 32 31 -17 71 -40
89 -50z m-2499 -173 c182 -28 292 -97 351 -221 30 -64 57 -201 43 -215 -14
-13 -171 -18 -182 -5 -5 6 -14 31 -21 55 -35 132 -134 190 -323 191 -167 0
-275 -47 -298 -132 -26 -100 28 -162 162 -183 24 -4 60 -11 79 -15 19 -5 82
-16 140 -25 209 -33 317 -67 390 -125 56 -44 80 -89 96 -180 23 -132 -8 -252
-90 -346 -97 -113 -363 -178 -588 -143 -250 39 -389 143 -427 318 -15 71 -14
151 2 152 88 7 161 4 172 -7 7 -7 15 -35 19 -63 8 -58 52 -124 103 -152 120
-67 414 -65 529 3 45 27 74 84 74 147 0 108 -80 149 -370 186 -293 38 -411 89
-471 205 -22 40 -24 58 -24 170 0 114 2 129 25 174 49 97 145 169 261 196 24
5 62 14 84 19 62 14 152 12 264 -4z m-10065 -562 c189 -108 264 -156 277 -178
17 -28 19 -57 19 -361 0 -314 1 -333 20 -356 10 -14 76 -58 145 -98 105 -60
132 -72 158 -67 35 6 249 126 282 158 19 19 20 35 23 521 2 454 4 504 19 521
23 25 42 19 173 -58 61 -36 115 -65 121 -65 5 0 65 32 134 70 69 39 129 70
135 70 5 0 19 -9 30 -20 19 -19 20 -33 20 -518 l0 -498 28 -26 c15 -14 80 -56
145 -93 97 -56 124 -66 150 -62 35 5 249 126 282 158 19 19 20 36 25 368 5
327 6 350 24 370 21 23 536 321 555 321 6 0 20 -9 31 -20 20 -20 20 -33 20
-694 0 -775 11 -695 -108 -765 -680 -392 -805 -461 -838 -461 -27 0 -99 37
-317 162 -155 88 -289 165 -297 171 -12 7 -91 -34 -314 -162 -225 -129 -307
-171 -333 -171 -48 0 -908 493 -929 532 -12 22 -14 140 -14 699 0 620 1 674
17 691 11 12 25 17 38 14 11 -3 137 -72 279 -153z"/>
<path d="M14960 5508 c0 -102 2 -119 14 -109 10 9 14 36 14 97 0 47 3 88 6 91
3 4 6 -33 6 -81 0 -85 0 -86 23 -81 15 4 49 -9 110 -42 l87 -48 0 -96 0 -97
-67 -38 c-123 -68 -113 -66 -151 -44 -18 11 -35 20 -38 20 -2 0 -4 -32 -4 -70
l0 -70 44 -22 44 -21 144 78 c79 42 149 84 156 93 8 11 12 63 12 177 0 142 -2
164 -17 177 -21 18 -267 154 -335 185 l-48 22 0 -121z"/>
<path d="M8997 9035 c-4 -973 -10 -1995 -13 -2271 -6 -511 -5 -544 30 -544 8
0 44 17 80 38 l66 37 0 103 c0 84 -3 102 -15 102 -16 0 -19 9 -9 34 3 9 10 13
15 10 5 -3 8 70 7 173 l-2 178 -6 -135 -6 -135 -3 160 c-2 88 -5 180 -7 205
-1 25 -3 281 -5 570 -1 289 -4 514 -6 500 -2 -14 -7 -153 -12 -310 -8 -280 -8
-275 -9 234 -1 286 -4 517 -7 515 -2 -3 -7 -155 -10 -339 -4 -184 -8 -369 -10
-410 -2 -41 -4 -178 -4 -304 -1 -126 -3 -227 -6 -224 -3 2 -6 434 -6 959 -1
525 -5 932 -10 904 -4 -27 -9 -97 -10 -155 -3 -96 -4 -91 -9 60 l-6 165 -4
-185 c-3 -102 -7 270 -10 825 l-5 1010 -8 -1770z"/>
<path d="M13515 10748 c1 -29 3 -61 4 -70 0 -10 7 -18 15 -18 22 0 29 -19 15
-36 -9 -11 -14 -12 -20 -3 -8 13 -5 -211 6 -503 4 -109 12 -198 16 -198 5 0 9
64 10 143 0 78 5 201 9 272 15 221 15 233 -5 255 -21 24 -14 27 9 4 19 -18 21
-2 4 26 -10 15 -10 22 0 32 6 6 12 23 12 36 0 13 4 21 8 18 5 -3 9 1 9 9 0 8
-4 12 -9 9 -4 -3 -8 13 -8 35 0 23 -4 41 -10 41 -5 0 -10 -20 -10 -45 0 -25
-3 -45 -8 -45 -4 0 -6 20 -4 45 4 42 3 45 -21 45 -24 0 -25 -2 -22 -52z"/>
<path d="M6890 10664 c0 -14 -4 -23 -9 -20 -5 4 -7 -7 -5 -24 3 -19 1 -30 -7
-30 -8 0 -8 -4 1 -15 7 -8 8 -15 4 -15 -5 0 -10 -76 -12 -169 -2 -165 -2 -170
18 -168 19 1 20 8 20 234 0 128 -2 233 -5 233 -3 0 -5 -12 -5 -26z"/>
<path d="M11601 10015 l-1 -660 25 0 25 0 0 217 c-1 182 -3 216 -15 212 -12
-5 -14 58 -15 420 0 234 -5 436 -10 448 -5 14 -9 -228 -9 -637z"/>
<path d="M11483 10489 c-8 -11 -12 -141 -13 -492 0 -262 1 -477 4 -477 2 0 12
7 20 16 23 22 24 272 1 280 -8 4 -15 15 -15 25 0 11 7 22 15 25 13 5 15 33 14
173 -3 292 -12 466 -26 450z"/>
<path d="M6742 9700 c-12 -21 -25 -1535 -13 -1555 3 -5 4 -55 2 -110 -2 -72 0
-97 8 -89 8 7 10 265 8 885 -1 480 -3 872 -5 869z"/>
<path d="M6965 8775 c0 -484 1 -683 2 -443 2 240 2 636 0 880 -1 244 -2 47 -2
-437z"/>
<path d="M8069 9505 c-11 -77 -11 -1021 0 -1009 8 7 10 171 9 530 -2 285 -6
501 -9 479z"/>
<path d="M9998 8911 c-5 -332 -9 -764 -9 -960 -2 -352 -4 -358 -23 -66 -9 140
-18 249 -21 275 -2 14 -4 38 -4 54 -1 35 -15 25 -17 -12 -1 -15 -2 -153 -3
-306 -1 -154 -3 -277 -5 -275 -7 8 -15 153 -16 277 0 73 -4 121 -9 117 -5 -3
-12 -1 -16 5 -3 5 1 10 11 10 15 0 16 32 10 443 -4 243 -9 462 -11 487 -2 25
-5 63 -6 85 -9 145 -16 -547 -18 -1677 l-1 -1316 112 -64 c62 -34 116 -64 120
-66 4 -2 8 652 8 1454 0 801 -2 1455 -4 1453 -8 -10 -16 -297 -18 -694 -1
-236 -5 -394 -8 -350 -8 99 -8 101 -16 -385 -4 -195 -8 -356 -9 -358 -1 -2 -6
500 -10 1115 -4 615 -11 1123 -16 1129 -4 5 -10 59 -11 120 -2 60 -6 -163 -10
-495z"/>
<path d="M9401 8975 c0 -285 3 -385 10 -371 13 22 12 671 -1 726 -5 21 -8
-123 -9 -355z"/>
<path d="M8661 9255 c-2 -44 -4 -96 -6 -115 -4 -51 -16 -258 -18 -307 -1 -24
-5 -43 -9 -43 -10 0 -9 -11 -17 255 -5 155 -8 11 -9 -492 -1 -462 -6 -714 -12
-718 -14 -9 -12 -52 3 -58 10 -4 10 -6 0 -6 -16 -1 -19 -351 -3 -351 5 0 30
12 55 27 l45 28 -2 845 c-2 732 -3 781 -8 370 l-5 -475 -5 560 c-3 308 -7 524
-9 480z"/>
<path d="M9676 9033 c-3 -153 -9 -446 -12 -650 -5 -267 -10 -373 -18 -373 -6
0 -4 -5 4 -10 11 -7 12 -12 3 -21 -14 -14 -23 25 -21 96 3 116 -2 1018 -6
1014 -2 -2 -7 -152 -10 -334 -4 -181 -9 -357 -11 -390 -1 -33 -4 -375 -5 -760
-2 -530 -5 -658 -11 -525 -12 263 -15 280 -17 108 -1 -87 -6 -158 -11 -158 -4
0 -9 262 -10 582 -2 414 -6 586 -13 596 -9 10 -8 16 1 22 11 6 12 39 8 155 -3
82 -11 153 -16 158 -8 8 -11 -270 -11 -931 0 -621 -3 -942 -10 -942 -7 0 -10
178 -11 513 0 463 -3 594 -15 606 -2 2 -4 -16 -5 -40 0 -24 -3 -53 -6 -64 -3
-11 -7 -258 -10 -550 -2 -291 -5 -546 -7 -565 -1 -19 -4 244 -6 585 -2 341 -6
593 -10 560 -4 -33 -7 134 -8 370 -2 419 -5 475 -23 475 -5 0 -10 -432 -11
-1007 0 -555 -4 -986 -7 -959 -10 82 -30 69 -34 -21 -3 -81 -9 1206 -7 1871 0
209 -3 377 -6 373 -4 -4 -9 -33 -11 -64 -2 -32 -8 -78 -13 -103 -5 -25 -9
-303 -10 -619 0 -316 -3 -577 -5 -580 -3 -2 -5 163 -5 367 0 241 -4 372 -10
372 -6 0 -10 -71 -10 -192 0 -105 -2 -189 -4 -187 -2 2 -6 65 -10 139 -3 74
-6 136 -6 138 0 1 -5 2 -11 2 -6 0 -10 -16 -9 -37 4 -73 0 -856 -4 -852 -2 2
-7 168 -11 369 -12 584 -22 575 -25 -25 -2 -302 -7 -503 -10 -445 -3 60 -7
-61 -8 -286 l-2 -391 25 -13 c14 -7 25 -18 25 -24 0 -15 -36 -46 -44 -39 -3 4
-6 -3 -6 -16 l0 -21 50 25 c62 31 84 31 140 0 25 -14 61 -33 80 -43 19 -9 37
-20 40 -23 6 -8 287 -169 295 -169 3 0 5 133 5 296 0 175 -4 293 -9 290 -5 -4
-8 -17 -6 -31 1 -14 -2 -25 -6 -25 -5 0 -9 125 -10 278 0 152 -2 288 -3 302
-1 14 -4 138 -6 275 l-3 250 -8 -180 c-3 -99 -10 -416 -14 -705 -4 -289 -8
-526 -10 -528 -2 -3 -12 945 -21 2178 -4 443 -8 806 -9 808 -1 2 -5 -122 -9
-275z"/>
<path d="M8507 9005 c-4 -154 -7 -469 -7 -699 0 -231 -3 -416 -7 -413 -3 4 -5
29 -4 56 1 27 -3 53 -9 56 -7 4 -8 11 -2 18 6 7 8 48 6 92 -2 44 -6 314 -9
600 -4 286 -8 525 -10 530 -2 6 -4 -295 -4 -668 -1 -402 -5 -676 -10 -673 -5
3 -7 24 -4 46 3 24 1 46 -6 54 -9 10 -9 16 -1 21 8 5 10 63 5 204 -7 221 -8
229 -30 211 -13 -11 -15 -89 -15 -571 l0 -558 48 27 c26 15 64 36 85 47 l37
20 0 306 c0 237 -3 308 -12 312 -10 4 -10 6 0 6 9 1 12 39 10 159 -1 104 -3
140 -8 107 -4 -27 -8 104 -8 293 -1 220 -6 342 -12 342 -5 0 -10 13 -10 29 0
17 5 33 10 36 15 10 12 52 -5 59 -20 7 -19 45 0 53 13 4 16 20 14 69 -1 36 -6
62 -12 61 -6 -1 -13 9 -17 23 -3 14 -9 -101 -13 -255z"/>
<path d="M7938 9103 c-8 -95 -12 -278 -12 -657 -1 -279 2 -360 12 -363 9 -4
12 108 12 536 0 298 -2 541 -4 541 -2 0 -5 -26 -8 -57z"/>
<path d="M8888 9074 c-5 -4 -8 -215 -9 -468 -1 -464 -12 -559 -25 -221 -3 94
-8 172 -10 174 -2 2 -5 -79 -6 -180 -2 -119 -5 -56 -8 181 -5 353 -6 344 -10
-265 -2 -358 -7 -567 -10 -485 l-6 145 -2 -207 c-1 -115 0 -208 3 -208 3 0 27
12 53 28 l47 27 -5 743 c-3 409 -8 740 -12 736z"/>
<path d="M10151 7750 c-2 -278 -2 -527 -2 -555 0 -39 -2 -46 -9 -30 -7 14 -9
3 -5 -40 4 -42 3 -56 -4 -45 -7 11 -10 -3 -9 -50 1 -36 0 -303 -1 -593 -1
-291 -1 -530 1 -531 26 -19 54 -36 61 -36 7 0 0 632 -9 658 -2 7 -4 373 -5
815 -1 441 -5 827 -9 857 -4 30 -8 -172 -9 -450z"/>
<path d="M10737 8124 c-11 -11 -8 -812 3 -819 7 -4 10 126 10 409 0 229 -1
416 -3 416 -2 0 -6 -3 -10 -6z"/>
<path d="M8930 7833 l0 -228 24 -11 c18 -8 23 -8 21 0 -2 6 -7 92 -10 191 -4
99 -7 200 -8 224 -1 25 -7 46 -14 48 -10 4 -13 -45 -13 -224z"/>
<path d="M9798 6927 l-3 -836 28 -16 29 -17 -6 148 c-3 82 -6 163 -7 179 -1
17 -1 149 -1 295 0 146 -1 283 -3 305 -2 22 -6 171 -9 330 -6 278 -14 435 -22
444 -2 2 -5 -372 -6 -832z"/>
<path d="M9232 5609 l-52 -31 2 -295 3 -295 57 -31 58 -32 62 33 c35 19 106
59 158 90 l95 57 3 176 c2 150 0 178 -13 189 -32 27 -289 170 -304 170 -9 0
-40 -14 -69 -31z"/>
<path d="M9068 5514 l-78 -45 0 -183 0 -184 83 -47 c45 -26 84 -49 87 -50 3
-2 4 122 2 276 -1 153 -6 279 -10 279 -4 0 -42 -21 -84 -46z"/>
</g>
</svg>
